<svg xmlns="http://www.w3.org/2000/svg" width="768.381" height="384.939" viewBox="0 0 768.381 384.939">
  <g id="Group_1642" data-name="Group 1642" transform="translate(-1052.636 2529)">
    <path id="Path_29341" data-name="Path 29341" d="M1592.29,1053.886l-10.568-14.192a6.739,6.739,0,0,0-5.318-2.676h-17V1027.5h17a16.186,16.186,0,0,1,12.939,6.5l10.568,14.192Z" transform="translate(52.791 -3378.922)" fill="#9ac4f8"/>
    <path id="Path_29342" data-name="Path 29342" d="M1477.813,1113.565a60.172,60.172,0,0,1-60.157,60.157c-1.152,0-2.269-.034-3.387-.1l-1.524-.1c-.745-.068-1.524-.135-2.269-.237a2.636,2.636,0,0,1-.745-.1c-1.152-.1-2.235-.3-3.353-.508-1.016-.169-2-.406-3.015-.644a51.109,51.109,0,0,1-6.808-2.1,15.856,15.856,0,0,1-1.626-.61,11.583,11.583,0,0,1-1.355-.576c-.644-.271-1.355-.576-2-.915a55.435,55.435,0,0,1-9.078-5.419c-.474-.339-.982-.677-1.423-1.05-.542-.44-1.152-.915-1.66-1.355a60.2,60.2,0,0,1-4.844-4.437c-.643-.644-1.287-1.355-1.9-2.066-.474-.508-.982-1.084-1.423-1.66-.508-.576-1.016-1.253-1.49-1.863-.61-.779-1.219-1.592-1.762-2.405a59.689,59.689,0,0,1-10.5-33.974v-.034c.034-25,13.888-46.337,35.566-55.415,3.9-1.626,9.823-5.521,9.823-9.789V939.869l2.134-4.369h28.08v112.794a7.532,7.532,0,0,0,2.168,4.844,21.5,21.5,0,0,0,7.384,5.115,11.083,11.083,0,0,1,1.287.61,34.61,34.61,0,0,1,4.607,2.337c.609.339,1.253.711,1.863,1.118.813.508,1.626,1.05,2.4,1.592,14.328,10.026,23.473,26.352,24.794,45.151C1477.746,1110.551,1477.813,1112.041,1477.813,1113.565Z" transform="translate(186.304 -3318.085)" fill="#9ac4f8"/>
    <path id="Path_29343" data-name="Path 29343" d="M1521.714,935.434v88.033c-1.457-49.148-19.883-69.742-28.216-76.618-.745-.61-1.457-1.152-2-1.524v-5.555l2.134-4.37h28.08Z" transform="translate(97.692 -3318.019)" fill="#82baff"/>
    <path id="Path_29344" data-name="Path 29344" d="M1498.078,1349.832c-1.355-18.8-10.466-35.159-24.828-45.185a56.763,56.763,0,0,0-8.874-5.047,62.3,62.3,0,0,1,10.128,30.011c.1,1.49.169,2.981.169,4.471a60.047,60.047,0,0,1-86.272,54.127,60.149,60.149,0,0,0,109.813-33.94C1498.247,1352.813,1498.179,1351.323,1498.078,1349.832Z" transform="translate(165.87 -3558.856)" fill="#70c8d6"/>
    <path id="Path_29345" data-name="Path 29345" d="M1514.619,928.931a8.4,8.4,0,0,1-2.371,5.792,8.036,8.036,0,0,1-5.148,2.371,3.9,3.9,0,0,1-.644.034H1477.6a5.013,5.013,0,0,1-.711-.034,8.221,8.221,0,0,1-7.486-8.2,8.4,8.4,0,0,1,2.371-5.792,8.277,8.277,0,0,1,5.826-2.4h28.859A8.2,8.2,0,0,1,1514.619,928.931Z" transform="translate(112.306 -3308.298)" fill="#b6c2cc"/>
    <path id="Path_29346" data-name="Path 29346" d="M1506.356,921.377a7.553,7.553,0,0,1,7.52,7.553,7.688,7.688,0,0,1-2.2,5.318,7.552,7.552,0,0,1-4.708,2.2h-.068a2.572,2.572,0,0,1-.542.034H1477.5a3.9,3.9,0,0,1-.644-.034h-.068a7.5,7.5,0,0,1-6.876-7.52,7.806,7.806,0,0,1,2.168-5.318,7.715,7.715,0,0,1,5.352-2.236Zm0-.677H1477.5a8.153,8.153,0,0,0-8.2,8.2,8.245,8.245,0,0,0,7.486,8.2,5.01,5.01,0,0,0,.711.034h28.859a3.894,3.894,0,0,0,.643-.034,8.208,8.208,0,0,0,5.149-2.371,8.313,8.313,0,0,0,2.371-5.792,8.161,8.161,0,0,0-8.163-8.231Z" transform="translate(112.373 -3308.298)" fill="#a4e6f7"/>
    <circle id="Ellipse_438" data-name="Ellipse 438" cx="4.302" cy="4.302" r="4.302" transform="translate(1584.857 -2233.073)" fill="#70c8d6"/>
    <circle id="Ellipse_439" data-name="Ellipse 439" cx="7.689" cy="7.689" r="7.689" transform="translate(1593.833 -2220.947)" fill="#70c8d6"/>
    <path id="Path_29347" data-name="Path 29347" d="M1486.148,1460.124v.237a52.024,52.024,0,0,1-88.914,36.209,51.182,51.182,0,0,1-14.734-30.925v-.034a51.188,51.188,0,0,1,26.488-7.418c15.818.17,30.417,12.871,53.755,9.721A73.616,73.616,0,0,0,1486.148,1460.124Z" transform="translate(169.772 -3663.728)" fill="#b58fef"/>
    <path id="Path_29348" data-name="Path 29348" d="M1517.691,1463.9v.237a51.753,51.753,0,0,1-51.96,51.553c-14.5,0-26.115-4.471-35.532-13.955,12.092,2.066,48.369.474,64.831-30.18C1501.975,1470.641,1508.919,1468.371,1517.691,1463.9Z" transform="translate(138.229 -3667.505)" fill="#8c6acc"/>
    <circle id="Ellipse_440" data-name="Ellipse 440" cx="7.757" cy="7.757" r="7.757" transform="matrix(0.8, -0.6, 0.6, 0.8, 1609.72, -2186.046)" fill="#8c6acc"/>
    <path id="Path_29349" data-name="Path 29349" d="M1672.267,1129.33h-8.875a.66.66,0,0,1-.644-.61l-1.151-12.6a17.526,17.526,0,0,0-9.857-12.77,36.117,36.117,0,0,1-6.165-3.861c-5.318-4.132-10.094-14.971-12.329-20.764a4.526,4.526,0,0,1,2.066-5.691l.2-.1,10.365-5.656a4.627,4.627,0,0,1,5.487.779c4.606,4.573,14.023,15.954,17.952,35.972C1674.638,1130.888,1672.267,1129.33,1672.267,1129.33Z" transform="translate(4.179 -3404.845)" fill="#82baff"/>
    <path id="Path_29350" data-name="Path 29350" d="M1677.417,1129.2h-1.456c1.084-5.386-3.658-26.082-10.873-39.766-10.5-19.883-17.478-17.783-24.388-16.7l10.365-5.656a4.627,4.627,0,0,1,5.487.779c4.607,4.573,14.023,15.954,17.952,35.972C1679.788,1130.756,1677.417,1129.2,1677.417,1129.2Z" transform="translate(-0.971 -3404.713)" fill="#9ac4f8"/>
    <circle id="Ellipse_441" data-name="Ellipse 441" cx="4.302" cy="4.302" r="4.302" transform="translate(1564.127 -2197.339)" fill="#8c6acc"/>
    <path id="Path_29351" data-name="Path 29351" d="M1329.652,1151.944v29.672a2.754,2.754,0,0,1-2.744,2.744h-20.221v28.08a2.744,2.744,0,1,1-5.487,0v-30.823a2.754,2.754,0,0,1,2.744-2.744h20.221v-26.894a2.7,2.7,0,0,1,1.423-2.405,2.5,2.5,0,0,1,1.321-.373A2.754,2.754,0,0,1,1329.652,1151.944Z" transform="translate(450.02 -3459.504)" fill="#9ac4f8"/>
    <path id="Path_29352" data-name="Path 29352" d="M1335.685,1151.878v29.672a2.754,2.754,0,0,1-2.744,2.744h-20.222v25.844h-2.337s-.135-26.895,0-28.012c.169-1.118,20.56.644,22.728-2.134,2.2-2.744.576-6.639.711-17.241.1-7.689-.406-11.415-2.2-13.278a2.5,2.5,0,0,1,1.321-.373A2.806,2.806,0,0,1,1335.685,1151.878Z" transform="translate(443.988 -3459.438)" fill="#82baff"/>
    <path id="Path_29353" data-name="Path 29353" d="M1187.642,1182.554v50.165a2.744,2.744,0,0,1-5.487,0V1189.7l-26.928,29.672a2.747,2.747,0,0,1-3.523.474,2.561,2.561,0,0,1-.372-.271,2.772,2.772,0,0,1-.2-3.9l31.738-34.956a1.782,1.782,0,0,1,.373-.339,2.747,2.747,0,0,1,4.4,2.168Z" transform="translate(549.724 -3479.75)" fill="#9ac4f8"/>
    <path id="Path_29354" data-name="Path 29354" d="M1184.551,1209.678v-10.4l-26.928,29.672a2.748,2.748,0,0,1-3.523.474l31.23-35.125Z" transform="translate(547.295 -3489.328)" fill="#82baff"/>
    <path id="Path_29355" data-name="Path 29355" d="M1251.637,1182.554v50h-2.472s.677-41.188,0-46.913a11.142,11.142,0,0,0-1.965-5.25,2.777,2.777,0,0,1,4.437,2.168Z" transform="translate(485.729 -3479.75)" fill="#82baff"/>
    <path id="Path_29356" data-name="Path 29356" d="M1265.276,1330.089v5.758a7.7,7.7,0,0,1-7.689,7.689h-31.264a7.712,7.712,0,0,1-7.723-7.689v-5.758a7.712,7.712,0,0,1,7.723-7.689h31.264A7.662,7.662,0,0,1,1265.276,1330.089Z" transform="translate(504.642 -3574.037)" fill="#263238"/>
    <path id="Path_29357" data-name="Path 29357" d="M1265.276,1330.023v5.758a7.7,7.7,0,0,1-7.689,7.689h-31.264a7.712,7.712,0,0,1-7.723-7.689v-2.574c20.933,1.728,32.517-6.232,37.395-10.907h1.592A7.712,7.712,0,0,1,1265.276,1330.023Z" transform="translate(504.642 -3573.971)" fill="#414d53"/>
    <path id="Path_29358" data-name="Path 29358" d="M1221.309,1494.763v9.179a3.737,3.737,0,0,1-3.726,3.726H1086.092a3.73,3.73,0,0,1-3.692-3.726v-9.179a3.853,3.853,0,0,1,.847-2.405l42.645-50.537a1.446,1.446,0,0,1,.406-.372,3.611,3.611,0,0,1,2.439-.949h46.235a3.729,3.729,0,0,1,2.4.915,1.658,1.658,0,0,1,.44.406l42.611,50.537A3.7,3.7,0,0,1,1221.309,1494.763Z" transform="translate(594.708 -3652.135)" fill="#9ac4f8"/>
    <rect id="Rectangle_338" data-name="Rectangle 338" width="51.045" height="19.917" transform="translate(1721.006 -2221.898)" fill="#9ac4f8"/>
    <path id="Path_29359" data-name="Path 29359" d="M1313.491,1474.66v9.179a3.737,3.737,0,0,1-3.726,3.726h-45.118c17.817-14.531,9.891-46.337,2.439-57.515-.372-.576-.779-1.084-1.118-1.558-2.574-3.15-6.639-5.86-11.347-8.129-13.82-6.74-32.822-9.823-32.822-9.823l.135-.44h47.624v11.178a1.654,1.654,0,0,1,.441.406l42.611,50.537A3.853,3.853,0,0,1,1313.491,1474.66Z" transform="translate(502.526 -3632.032)" fill="#82baff"/>
    <path id="Path_29360" data-name="Path 29360" d="M1252.355,1381.967h-52.908a5.038,5.038,0,0,1-5.047-5.047v-8.773a5.038,5.038,0,0,1,5.047-5.047h52.908a5.038,5.038,0,0,1,5.047,5.047v8.739A5.024,5.024,0,0,1,1252.355,1381.967Z" transform="translate(520.645 -3600.952)" fill="#c7d3de"/>
    <path id="Path_29361" data-name="Path 29361" d="M1229.467,1550.705c0,1.457-1.423,2.608-3.218,2.608H1111.118c-1.728,0-3.218-1.152-3.218-2.608l.542-6.368a2.239,2.239,0,0,1,.745-1.693l20.188-23.473c7.316-1.423,15.412-2.066,22.491-.678,18.494,3.726,20.493,11.11,33.6,11.347a48.6,48.6,0,0,0,14.43-2.066,49.226,49.226,0,0,0,11.516-5.182l16.733,20.052a2.239,2.239,0,0,1,.745,1.693Z" transform="translate(577.846 -3703.2)" fill="#e8505b"/>
    <path id="Path_29362" data-name="Path 29362" d="M1398.159,1560.214c0,1.457-1.423,2.608-3.218,2.608H1363c5.013-7.215,6.334-16.53,5.623-25.539a49.231,49.231,0,0,0,11.516-5.182l16.733,20.052a2.239,2.239,0,0,1,.745,1.693Z" transform="translate(409.153 -3712.708)" fill="#f14062"/>
    <circle id="Ellipse_442" data-name="Ellipse 442" cx="5.69" cy="5.69" r="5.69" transform="translate(1706.035 -2176.611)" fill="#d44c56"/>
    <circle id="Ellipse_443" data-name="Ellipse 443" cx="3.794" cy="3.794" r="3.794" transform="translate(1766.124 -2159.607)" fill="#d44c56"/>
    <circle id="Ellipse_444" data-name="Ellipse 444" cx="7.316" cy="7.316" r="7.316" transform="translate(1748.68 -2194.868)" fill="#82baff"/>
    <circle id="Ellipse_445" data-name="Ellipse 445" cx="3.895" cy="3.895" r="3.895" transform="translate(1734.894 -2199.373)" fill="#82baff"/>
    <circle id="Ellipse_446" data-name="Ellipse 446" cx="2.845" cy="2.845" r="2.845" transform="translate(1748.68 -2206.283)" fill="#82baff"/>
    <g id="Group_1376" data-name="Group 1376" transform="translate(1052.636 -2145.235)">
      <path id="Path_29012" data-name="Path 29012" d="M1367.281,344.509c0-.206-171.95-.309-384.191-.309s-384.191.1-384.191.309,171.951.309,384.191.309S1367.281,344.715,1367.281,344.509Z" transform="translate(-598.9 -344.2)" fill="#263238"/>
    </g>
    <path id="Path_29313" data-name="Path 29313" d="M709.407,904.344H593.29a6.452,6.452,0,0,1-5.507-9.87l48.3-75.245a8.27,8.27,0,0,0,1.33-4.486l.031-23.143h27.815l.031,23.143a8.27,8.27,0,0,0,1.33,4.486l48.3,75.245A6.476,6.476,0,0,1,709.407,904.344Z" transform="translate(596.031 -3198.667)" fill="#9ac4f8"/>
    <path id="Path_29314" data-name="Path 29314" d="M756.3,789.54s18.409-1.794,18.626,10.612S780.4,783.6,780.4,783.6l-24.1,1.423Z" transform="translate(478.967 -3193.142)" fill="#9ac4f8"/>
    <path id="Path_29315" data-name="Path 29315" d="M867.887,904.344H823.829c8.787-7.487,8.416-16.367,9.622-25.525,1.887-14.294-.8-34.621-16.769-59.621-.773-3.31-.247-21.534-.093-27.6h7.085l.031,23.143a8.27,8.27,0,0,0,1.331,4.486l48.3,75.245A6.431,6.431,0,0,1,867.887,904.344Z" transform="translate(437.551 -3198.667)" fill="#82baff"/>
    <path id="Path_29316" data-name="Path 29316" d="M721.867,1043.073H621.128c-4.517,0-6-3.28-3.589-6.776l22.122-34.652a34.31,34.31,0,0,1,9.437-.773c13.892,1.33,17.512,7.859,32.022,7.054a43.993,43.993,0,0,0,12.159-2.32c.866-.278,1.733-.588,2.537-.928a34.4,34.4,0,0,0,7.364-4.177l22.307,35.8C727.838,1039.824,726.384,1043.073,721.867,1043.073Z" transform="translate(575.589 -3342.934)" fill="#263238"/>
    <path id="Path_29317" data-name="Path 29317" d="M887.549,1043.073H856.3c3.744-4.734,5.971-25.4,4.548-38.334.866-.278,6.343-2.382,7.982-4.239l22.307,35.8C893.52,1039.824,892.066,1043.073,887.549,1043.073Z" transform="translate(409.906 -3342.934)" fill="#263238"/>
    <path id="Path_29318" data-name="Path 29318" d="M764.1,772.206H737.059a6.563,6.563,0,0,1-6.559-6.559v-.588a6.563,6.563,0,0,1,6.559-6.559H764.1a6.562,6.562,0,0,1,6.559,6.559v.588A6.563,6.563,0,0,1,764.1,772.206Z" transform="translate(496.785 -3175.808)" fill="#b6c2cc"/>
    <circle id="Ellipse_432" data-name="Ellipse 432" cx="4.455" cy="4.455" r="4.455" transform="translate(1212.495 -2318.704)" fill="#414d53"/>
    <circle id="Ellipse_433" data-name="Ellipse 433" cx="4.455" cy="4.455" r="4.455" transform="translate(1254.385 -2357.811)" fill="#82baff"/>
    <circle id="Ellipse_434" data-name="Ellipse 434" cx="4.858" cy="4.858" r="4.858" transform="translate(1262.494 -2314.96)" fill="#414d53"/>
    <circle id="Ellipse_435" data-name="Ellipse 435" cx="6.095" cy="6.095" r="6.095" transform="translate(1244.518 -2330.925)" fill="#414d53"/>
    <circle id="Ellipse_436" data-name="Ellipse 436" cx="6.095" cy="6.095" r="6.095" transform="translate(1229.262 -2369.63)" fill="#82baff"/>
    <g id="Group_1491" data-name="Group 1491" transform="translate(1092.945 -2387.699)">
      <path id="Path_29319" data-name="Path 29319" d="M298.064,857.727H427.082a1.763,1.763,0,0,0,1.764-1.764,1.783,1.783,0,0,0-1.764-1.763H298.064a1.763,1.763,0,0,0-1.764,1.763A1.783,1.783,0,0,0,298.064,857.727Z" transform="translate(-296.3 -854.2)" fill="#b6c2cc"/>
    </g>
    <path id="Path_29320" data-name="Path 29320" d="M214.5,1572.985H315.58a29.525,29.525,0,0,0-29.516-29.485H244.016A29.485,29.485,0,0,0,214.5,1572.985Z" transform="translate(853.136 -3717.933)" fill="#c7d3de"/>
    <g id="Group_1492" data-name="Group 1492" transform="translate(1114.633 -2460.407)">
      <path id="Path_29321" data-name="Path 29321" d="M366.4,622.6V919.933a3.528,3.528,0,0,0,7.054,0V622.6a3.481,3.481,0,0,0-3.527-3.4,3.726,3.726,0,0,0-2.506.99.03.03,0,0,0-.031.031A3.344,3.344,0,0,0,366.4,622.6Z" transform="translate(-366.4 -619.2)" fill="#c7d3de"/>
    </g>
    <rect id="Rectangle_337" data-name="Rectangle 337" width="20.049" height="8.539" transform="translate(1108.136 -2462.14)" fill="#c7d3de"/>
    <path id="Path_29322" data-name="Path 29322" d="M261.5,902.08c2.166-.526,3.527-.773,3.527-.773V622.139c-2.135-2.1-2.723-4.053-2.537-5.786a.03.03,0,0,1,.031-.031,5.693,5.693,0,0,1,.99-2.723H255v8.539h6.5V901.276h-17.45A29.538,29.538,0,0,0,214.5,930.792h29.64C222.08,913.683,250.978,904.648,261.5,902.08Z" transform="translate(853.136 -3075.74)" fill="#b6c2cc"/>
    <path id="Path_29323" data-name="Path 29323" d="M718.5,847.736v.433a5.071,5.071,0,0,0,5.105,5.105h37.406a5,5,0,0,0,3.249-1.207h.031a5.223,5.223,0,0,0,1.795-3.9v-.433a5.117,5.117,0,0,0-5.1-5.136H723.605A5.1,5.1,0,0,0,718.5,847.736Z" transform="translate(505.072 -3233.888)" fill="#c7d3de"/>
    <path id="Path_29324" data-name="Path 29324" d="M345.4,830.853V840.2a5.361,5.361,0,0,0,5.353,5.383H360.1a5.361,5.361,0,0,0,5.352-5.383v-9.344A5.354,5.354,0,0,0,360.1,825.5h-9.344A5.354,5.354,0,0,0,345.4,830.853Z" transform="translate(762.736 -3222.079)" fill="#c7d3de"/>
    <path id="Path_29325" data-name="Path 29325" d="M274.4,829.808v11.541a4.279,4.279,0,0,0,4.239,4.3,4.181,4.181,0,0,0,1.64-.309s0,.031.031,0a4.344,4.344,0,0,0,2.63-3.96v-11.54a4.259,4.259,0,0,0-4.3-4.239,4.353,4.353,0,0,0-1.794.4C274.8,827.8,274.4,828.756,274.4,829.808Z" transform="translate(811.769 -3222.148)" fill="#c7d3de"/>
    <path id="Path_29326" data-name="Path 29326" d="M345.4,830.853V840.2a5.361,5.361,0,0,0,5.353,5.383h4.672c-6.807-11.7,0-20.08,0-20.08h-4.672A5.354,5.354,0,0,0,345.4,830.853Z" transform="translate(762.736 -3222.079)" fill="#b6c2cc"/>
    <path id="Path_29327" data-name="Path 29327" d="M274.4,830.637v11.54a4.279,4.279,0,0,0,4.239,4.3,4.181,4.181,0,0,0,1.64-.309c-3.837-3.125-3.806-13.552-3.434-19.368C274.8,828.625,274.4,829.585,274.4,830.637Z" transform="translate(811.769 -3222.977)" fill="#b6c2cc"/>
    <path id="Path_29328" data-name="Path 29328" d="M718.5,847.736v.433a5.071,5.071,0,0,0,5.105,5.105h37.406a5,5,0,0,0,3.249-1.207c-6.776,1.3-21.565,2.6-27.381-9.468H723.605A5.1,5.1,0,0,0,718.5,847.736Z" transform="translate(505.072 -3233.888)" fill="#b6c2cc"/>
    <g id="Group_1494" data-name="Group 1494" transform="translate(1252.253 -2201.907)">
      <path id="Path_29329" data-name="Path 29329" d="M811.293,1475.337a.1.1,0,0,1-.093-.093v-20.451a.1.1,0,0,1,.093-.093.082.082,0,0,1,.093.093v20.451C811.355,1475.306,811.324,1475.337,811.293,1475.337Z" transform="translate(-811.2 -1454.7)" fill="#dd3b2f"/>
    </g>
    <path id="Path_29330" data-name="Path 29330" d="M763.665,1510.968v10.365H686.1v-10.365a5.585,5.585,0,0,1,5.569-5.569h66.489A5.494,5.494,0,0,1,763.665,1510.968Z" transform="translate(527.447 -3691.62)" fill="#9ac4f8"/>
    <path id="Path_29331" data-name="Path 29331" d="M763.665,1510.968v10.365H686.1v-3.156c17.574,1.423,55.351,2.413,70.449-12.778h1.609A5.494,5.494,0,0,1,763.665,1510.968Z" transform="translate(527.447 -3691.62)" fill="#82baff"/>
    <path id="Path_29332" data-name="Path 29332" d="M750.285,1560.388v19.987H651v-19.987a6.206,6.206,0,0,1,6.188-6.188H744.1A6.206,6.206,0,0,1,750.285,1560.388Z" transform="translate(551.687 -3725.322)" fill="#9ac4f8"/>
    <path id="Path_29333" data-name="Path 29333" d="M773.973,1560.374v19.987H752.841c3.96-4.177,5.971-8.354,4.053-12.159-7.456-14.758-71.594-14.016-71.594-14.016h82.485A6.206,6.206,0,0,1,773.973,1560.374Z" transform="translate(528 -3725.308)" fill="#82baff"/>
    <path id="Path_29334" data-name="Path 29334" d="M763.261,1353.1a23.36,23.36,0,0,0,5.476-.742c7.24-1.826,14.077-6.9,15.408-14.6,1.64-9.406-5.476-16.243-11.881-21.874-5.26-4.641-12.128-10.024-11.324-17.883a32.182,32.182,0,0,1-3.62,12.5c-3.713,6.621-11.664,9.189-15.191,15.779-3.249,6.095-1.423,14.7,3.187,19.615A23.886,23.886,0,0,0,763.261,1353.1Z" transform="translate(489.889 -3548.389)" fill="#e8505b"/>
    <path id="Path_29335" data-name="Path 29335" d="M787.125,1403.243a12.411,12.411,0,0,0,2.785-.433,10.848,10.848,0,0,0,7.766-8.756c.835-5.631-2.754-9.746-6-13.118-2.661-2.784-6.126-6-5.724-10.736a21.634,21.634,0,0,1-1.825,7.487c-1.856,3.96-5.878,5.507-7.673,9.468-1.64,3.651-.712,8.818,1.609,11.757A11.182,11.182,0,0,0,787.125,1403.243Z" transform="translate(465.623 -3598.25)" fill="#e8505b"/>
    <path id="Path_29336" data-name="Path 29336" d="M756.263,1579.317v10.705H666.6v-10.705a4.47,4.47,0,0,1,4.455-4.517h80.752A4.51,4.51,0,0,1,756.263,1579.317Z" transform="translate(540.914 -3739.548)" fill="#263238"/>
    <path id="Path_29337" data-name="Path 29337" d="M902.533,1579.386v10.705H889.662c1.423-2.63,1.795-5.167.588-7.58-1.64-3.249-6.033-5.724-11.85-7.611h19.678A4.463,4.463,0,0,1,902.533,1579.386Z" transform="translate(394.644 -3739.618)" fill="#414d53"/>
    <path id="Path_29338" data-name="Path 29338" d="M768.411,515.218a17.859,17.859,0,0,1-17.852,17.852,17.192,17.192,0,0,1-6.188-1.176h-.031c-.557-.217-1.145-.464-1.7-.743a12.359,12.359,0,1,1-18.533-16.212,13.452,13.452,0,0,1-3.806-9.375,13.713,13.713,0,0,1,12.407-13.644,13.446,13.446,0,0,1-.34-2.97,12.821,12.821,0,0,1,3.96-9.282,10.253,10.253,0,0,1-6.064-9.282A10.1,10.1,0,0,1,740.38,460.3a10.506,10.506,0,0,1,2.413.278,10.068,10.068,0,0,1,5.693,15.872,12.9,12.9,0,0,1,6.126,21.472A17.7,17.7,0,0,1,768.411,515.218Z" transform="translate(503.828 -2969.87)" fill="#263238"/>
    <path id="Path_29363" data-name="Path 29363" d="M6.714,0A6.714,6.714,0,1,1,0,6.714,6.714,6.714,0,0,1,6.714,0Z" transform="translate(1255.347 -2529)" fill="#263238"/>
    <path id="Path_29339" data-name="Path 29339" d="M815.994,515.7a17.859,17.859,0,0,1-17.852,17.852,17.192,17.192,0,0,1-6.188-1.176c22.029-16.119,0-31.93,0-31.93a12.807,12.807,0,0,0,7.116-12.871c-.712-5.971-9.87-9.282-9.87-9.282,6.683-5.94,3.249-13.8,1.207-17.3a10.068,10.068,0,0,1,5.693,15.872,12.9,12.9,0,0,1,6.126,21.472A17.827,17.827,0,0,1,815.994,515.7Z" transform="translate(456.246 -2970.354)" fill="#414d53"/>
    <path id="Path_29340" data-name="Path 29340" d="M832.15,397.8a6.614,6.614,0,0,1,1.485,4.177,6.708,6.708,0,0,1-6.714,6.714c-.34,0-.681-.062-1.021-.093a6.7,6.7,0,1,0,6.25-10.8Z" transform="translate(430.901 -2926.707)" fill="#414d53"/>
    <g id="Group_1395" data-name="Group 1395" transform="translate(1273.835 -2338.621)">
      <path id="Path_29013" data-name="Path 29013" d="M716.163,310.42l-41.763-41.9,21.02-38.582c21.02-26.828,65.41-25.168,65.41-25.168a253.906,253.906,0,0,1,65.549,4.01c35.264,6.914,32.5,30.285,32.5,30.285l4.7,86.568,5.117,70.389-130.129,2.627-22.4-88.228" transform="translate(-631.411 -204.162)" fill="#e8505b"/>
      <path id="Path_29014" data-name="Path 29014" d="M798.316,382l-116.577,1.383c-28.073.277-46.741-28.764-34.71-54.071L696.951,236.8l45.359,30.7-30.977,64.3,94.451,1.66Z" transform="translate(-643.313 -191.666)" fill="#e8505b"/>
      <path id="Path_29015" data-name="Path 29015" d="M804.8,219.1l93.621,144.511-54.624,3.6s-32.636-51.443-31.806-50.337C813.236,318.806,804.8,219.1,804.8,219.1Z" transform="translate(-581.483 -198.443)" fill="#e8505b"/>
      <path id="Path_29016" data-name="Path 29016" d="M702,285.5" transform="translate(-620.843 -173.02)" fill="#e8505b"/>
      <g id="Group_1378" data-name="Group 1378" transform="translate(81.018 17.615)">
        <path id="Path_29017" data-name="Path 29017" d="M717.388,283.417a2.422,2.422,0,0,1,.138-.691c.138-.553.277-1.245.553-2.074.415-1.8,1.106-4.425,1.659-7.744a103.681,103.681,0,0,0,1.8-11.616,61.287,61.287,0,0,0,0-14.244,36.179,36.179,0,0,0-4.84-13.276,61.492,61.492,0,0,0-6.914-9.4,65.928,65.928,0,0,0-5.67-5.532c-1.383-1.245-2.213-1.8-2.213-1.936a7.177,7.177,0,0,1,.691.415q.622.415,1.659,1.245a37.959,37.959,0,0,1,5.808,5.393,50.428,50.428,0,0,1,7.191,9.4,40.5,40.5,0,0,1,4.978,13.552,55.28,55.28,0,0,1-.138,14.382c-.553,4.425-1.245,8.3-1.936,11.616s-1.383,5.946-1.936,7.744a8.845,8.845,0,0,1-.691,2.074A1.678,1.678,0,0,1,717.388,283.417Z" transform="translate(-701.9 -216.9)" fill="#263238"/>
      </g>
      <g id="Group_1379" data-name="Group 1379" transform="translate(67.743 89.11)">
        <path id="Path_29018" data-name="Path 29018" d="M717.33,268.6s-.277.83-.83,2.074c-.553,1.383-1.383,3.181-2.489,5.532-2.074,4.7-5.117,11.2-8.574,18.254s-6.776,13.414-9.127,17.977c-1.245,2.213-2.213,4.149-2.9,5.393s-1.106,1.936-1.106,1.936.277-.691.968-2.074,1.659-3.181,2.766-5.393l8.989-17.978c3.457-7.053,6.5-13.414,8.712-18.116,1.106-2.213,1.936-4.01,2.628-5.532A15.949,15.949,0,0,1,717.33,268.6Z" transform="translate(-692.3 -268.6)" fill="#263238"/>
      </g>
      <g id="Group_1380" data-name="Group 1380" transform="translate(41.191 139.723)">
        <path id="Path_29019" data-name="Path 29019" d="M786.911,355.813v-.968c0-.691.138-1.521.277-2.766.276-2.489.691-5.946,1.106-10.372.968-8.989,2.489-21.573,4.149-36.37l.277.415H758.286c-23.509,0-44.805-.138-60.294-.138-7.606,0-13.967-.138-18.254-.138h0c4.425,0,10.648,0,18.254-.138,15.488,0,36.785,0,60.294-.138h34.849v.415c-1.8,14.8-3.319,27.381-4.425,36.37-.553,4.425-.968,7.882-1.383,10.372-.138,1.106-.277,2.074-.415,2.766a5.994,5.994,0,0,1-.138.691C786.911,355.675,786.911,355.813,786.911,355.813Z" transform="translate(-673.1 -305.2)" fill="#263238"/>
      </g>
      <g id="Group_1381" data-name="Group 1381" transform="translate(49.489 124.901)">
        <path id="Path_29020" data-name="Path 29020" d="M698.322,310.687c-.138,0-.83-1.106-2.351-2.9a43.719,43.719,0,0,0-6.223-6.361,51.676,51.676,0,0,0-7.329-5.117c-1.936-1.106-3.319-1.659-3.319-1.8s1.383.277,3.457,1.383a35.1,35.1,0,0,1,7.606,4.978,37.787,37.787,0,0,1,6.223,6.638C697.769,309.442,698.46,310.687,698.322,310.687Z" transform="translate(-679.1 -294.481)" fill="#263238"/>
      </g>
      <g id="Group_1382" data-name="Group 1382" transform="translate(226.774 31.444)">
        <path id="Path_29021" data-name="Path 29021" d="M814.629,345.69a4.341,4.341,0,0,1-.138-1.245c-.138-.83-.276-1.936-.415-3.457-.277-3.042-.691-7.329-1.245-12.723-.968-10.648-2.074-25.583-3.042-41.9s-1.66-31.253-2.075-42.04c-.138-5.393-.276-9.68-.415-12.723v-4.7a8.535,8.535,0,0,0,.138,1.245c0,.83.138,2.074.138,3.457.138,3.042.415,7.468.553,12.723.553,10.787,1.245,25.583,2.213,41.9s1.936,31.253,2.766,41.9c.415,5.255.692,9.68.968,12.723.138,1.383.138,2.628.276,3.457A5.855,5.855,0,0,1,814.629,345.69Z" transform="translate(-807.3 -226.9)" fill="#263238"/>
      </g>
      <g id="Group_1383" data-name="Group 1383" transform="translate(114.899 34.071)">
        <path id="Path_29022" data-name="Path 29022" d="M741.473,266.414s0-.691.138-1.936c.138-1.383.415-3.042.691-5.255.553-4.564,1.383-10.786,2.351-18.116l.553.277c-2.766,1.936-5.808,4.01-8.989,6.223s-6.223,4.425-9.127,6.361l-.691.415.138-.83c1.106-7.191,2.074-13.414,2.766-17.839.415-2.074.691-3.872.83-5.117.277-1.245.277-1.8.415-1.8,0,0,0,.691-.138,1.936s-.415,3.042-.691,5.255c-.691,4.564-1.521,10.786-2.489,17.978l-.553-.277c2.766-1.936,5.946-4.149,9.127-6.361s6.223-4.287,8.989-6.223l.691-.415-.138.83c-1.106,7.191-1.936,13.414-2.627,17.978-.277,2.213-.553,3.872-.83,5.255C741.75,265.723,741.612,266.414,741.473,266.414Z" transform="translate(-726.4 -228.8)" fill="#e0e0e0"/>
      </g>
      <g id="Group_1384" data-name="Group 1384" transform="translate(146.264 57.58)">
        <path id="Path_29023" data-name="Path 29023" d="M784.924,265.437a9.962,9.962,0,0,1-1.383-1.383c-.968-.968-2.074-2.213-3.6-3.872-3.181-3.319-7.468-8.021-12.308-13.414l.553-.138c-.277,3.457-.553,7.053-.968,10.925-.277,3.872-.691,7.606-.968,11.063v.83l-.553-.553c-4.84-5.393-8.989-10.1-12.031-13.552-1.383-1.659-2.628-2.9-3.457-4.01-.83-.968-1.245-1.383-1.106-1.521a9.975,9.975,0,0,1,1.383,1.383c.968.968,2.074,2.213,3.6,3.872,3.042,3.319,7.329,8.021,12.169,13.414l-.553.138c.276-3.457.553-7.191.968-11.063.276-3.872.691-7.468.968-10.925v-.83l.553.553c4.84,5.393,9.127,10.1,12.169,13.552,1.383,1.66,2.628,2.9,3.457,4.01C784.509,264.884,784.924,265.437,784.924,265.437Z" transform="translate(-749.081 -245.8)" fill="#e0e0e0"/>
      </g>
      <g id="Group_1385" data-name="Group 1385" transform="translate(193.723 75.419)">
        <path id="Path_29024" data-name="Path 29024" d="M797.92,258.7s-.276.553-.968,1.66-1.659,2.627-2.766,4.425c-2.489,3.872-5.946,9.127-9.818,15.35l-.277-.553c3.319-.553,7.053-1.245,10.786-1.8,3.872-.691,7.468-1.245,10.925-1.8l.83-.138-.415.691c-4.01,6.085-7.606,11.2-10.1,15.073-1.245,1.8-2.213,3.181-2.9,4.287-.692.968-1.106,1.521-1.106,1.521s.276-.553.968-1.659,1.66-2.628,2.766-4.425c2.489-3.872,5.946-9.127,9.818-15.212l.276.553c-3.457.553-7.052,1.245-10.925,1.936-3.734.691-7.468,1.245-10.786,1.8l-.83.138.415-.691c4.01-6.085,7.468-11.34,10.1-15.212,1.245-1.8,2.213-3.319,2.9-4.287C797.505,259.253,797.92,258.7,797.92,258.7Z" transform="translate(-783.4 -258.7)" fill="#e0e0e0"/>
      </g>
      <g id="Group_1386" data-name="Group 1386" transform="translate(158.875 102.247)">
        <path id="Path_29025" data-name="Path 29025" d="M772.72,278.1s-.276.553-.968,1.659-1.66,2.628-2.766,4.425c-2.489,3.872-5.946,9.127-9.818,15.35l-.277-.553c3.319-.553,7.053-1.245,10.786-1.8,3.872-.691,7.468-1.245,10.925-1.8l.83-.138-.415.691c-4.01,6.085-7.606,11.2-10.1,15.073-1.245,1.8-2.213,3.181-2.9,4.287-.691.968-1.106,1.521-1.106,1.521s.277-.553.968-1.659,1.659-2.628,2.766-4.425c2.489-3.872,5.946-9.127,9.818-15.212l.277.553c-3.457.553-7.053,1.245-10.925,1.936-3.734.691-7.468,1.245-10.786,1.8l-.83.138.415-.691c4.01-6.085,7.468-11.34,10.095-15.212,1.245-1.8,2.213-3.319,2.9-4.287A8.292,8.292,0,0,1,772.72,278.1Z" transform="translate(-758.2 -278.1)" fill="#e0e0e0"/>
      </g>
      <g id="Group_1387" data-name="Group 1387" transform="translate(234.242 75.004)">
        <path id="Path_29026" data-name="Path 29026" d="M827.22,258.4s-.277.553-.968,1.659-1.66,2.628-2.766,4.425c-2.489,3.872-5.946,9.127-9.818,15.35l-.276-.553c3.319-.553,7.053-1.245,10.786-1.8,3.872-.691,7.468-1.245,10.925-1.8l.83-.138-.415.691c-4.01,6.085-7.606,11.2-10.1,15.073-1.245,1.8-2.213,3.181-2.9,4.287-.691.968-1.106,1.521-1.106,1.521s.277-.553.968-1.66,1.659-2.627,2.766-4.425c2.489-3.872,5.946-9.127,9.818-15.212l.276.553c-3.457.553-7.053,1.245-10.925,1.936-3.734.691-7.468,1.245-10.786,1.8l-.83.138.415-.691c4.01-6.085,7.468-11.34,10.1-15.212,1.245-1.8,2.213-3.319,2.9-4.287C826.667,258.953,827.082,258.4,827.22,258.4Z" transform="translate(-812.7 -258.4)" fill="#e0e0e0"/>
      </g>
      <g id="Group_1388" data-name="Group 1388" transform="translate(57.924 52.878)">
        <path id="Path_29027" data-name="Path 29027" d="M699.72,242.4s-.277.553-.968,1.659-1.659,2.627-2.766,4.425c-2.489,3.872-5.946,9.127-9.818,15.35l-.277-.553c3.319-.553,7.053-1.245,10.786-1.8,3.872-.691,7.468-1.245,10.925-1.8l.83-.138-.415.691c-4.01,6.085-7.606,11.2-10.1,15.073-1.245,1.8-2.213,3.181-2.9,4.287-.691.968-1.106,1.521-1.106,1.521s.277-.553.968-1.659,1.659-2.627,2.766-4.425c2.489-3.872,5.946-9.127,9.818-15.212l.277.553c-3.457.553-7.053,1.245-10.925,1.936-3.734.691-7.468,1.245-10.786,1.8l-.83.138.415-.691c4.01-6.085,7.468-11.34,10.095-15.212,1.245-1.8,2.213-3.319,2.9-4.287C699.305,242.953,699.72,242.4,699.72,242.4Z" transform="translate(-685.2 -242.4)" fill="#e0e0e0"/>
      </g>
      <g id="Group_1389" data-name="Group 1389" transform="translate(17.821 153.414)">
        <path id="Path_29028" data-name="Path 29028" d="M656.2,318s.415.415,1.245,1.383,1.936,2.351,3.319,4.01c2.9,3.6,6.914,8.436,11.478,14.105l-.553.138c.553-3.319.968-7.053,1.521-10.786.553-3.872,1.106-7.606,1.659-10.925l.138-.83.553.691c4.425,5.67,8.3,10.648,11.2,14.244,1.245,1.66,2.351,3.181,3.181,4.149.691.968,1.106,1.521,1.106,1.521s-.415-.415-1.245-1.383-1.936-2.351-3.319-4.01c-2.9-3.6-6.776-8.436-11.34-14.105l.553-.138c-.553,3.457-1.106,7.053-1.659,10.925-.553,3.734-1.106,7.468-1.66,10.786l-.138.83-.553-.553c-4.564-5.67-8.436-10.648-11.34-14.244-1.383-1.659-2.351-3.181-3.181-4.149C656.477,318.557,656.2,318,656.2,318Z" transform="translate(-656.2 -315.1)" fill="#e0e0e0"/>
      </g>
      <g id="Group_1390" data-name="Group 1390" transform="translate(108.123 89.325)">
        <path id="Path_29029" data-name="Path 29029" d="M756.072,268.817s-.691.138-1.936.277c-1.383.138-3.042.277-5.255.415-4.563.277-10.925.83-18.116,1.383l.277-.553c2.489,2.351,5.117,4.84,8.021,7.468,2.766,2.627,5.531,5.255,8.021,7.606l.553.553h-.83c-7.191.415-13.552.691-18.116.968-2.213.138-3.872.138-5.255.277H721.5s.692-.138,1.936-.277c1.383-.138,3.042-.277,5.255-.415,4.564-.277,10.787-.691,18.116-1.245l-.277.553c-2.489-2.351-5.255-4.978-8.021-7.606s-5.532-5.117-7.883-7.468l-.553-.553h.83c7.329-.415,13.552-.83,18.116-1.106,2.213-.138,3.872-.138,5.255-.277C755.38,268.817,756.072,268.679,756.072,268.817Z" transform="translate(-721.5 -268.756)" fill="#e0e0e0"/>
      </g>
      <g id="Group_1391" data-name="Group 1391" transform="translate(111.995 155.903)">
        <path id="Path_29030" data-name="Path 29030" d="M724.3,320.081a6.715,6.715,0,0,1,1.245,1.383c.83.968,2.074,2.351,3.457,4.01,3.042,3.457,7.053,8.3,11.754,13.967l-.553.138c.415-3.319.83-7.053,1.383-10.786.553-3.872.968-7.606,1.383-11.063l.138-.83.553.553c4.564,5.67,8.574,10.51,11.478,14.105q2.074,2.489,3.319,4.149c.691.968,1.106,1.521,1.106,1.521s-.415-.415-1.245-1.383-1.936-2.351-3.457-4.01c-2.9-3.457-6.914-8.3-11.616-13.829l.553-.138c-.415,3.457-.968,7.191-1.383,11.063-.553,3.734-.968,7.468-1.383,10.786l-.138.83-.553-.553c-4.7-5.67-8.712-10.51-11.616-14.105q-2.074-2.489-3.319-4.149C724.715,320.634,724.3,320.081,724.3,320.081Z" transform="translate(-724.3 -316.9)" fill="#e0e0e0"/>
      </g>
      <g id="Group_1392" data-name="Group 1392" transform="translate(22.661 107.917)">
        <path id="Path_29031" data-name="Path 29031" d="M694.272,282.2s-.691.138-1.936.277c-1.383.138-3.042.277-5.255.415-4.564.277-10.925.83-18.116,1.383l.277-.553c2.489,2.351,5.117,4.84,8.021,7.468,2.766,2.628,5.532,5.255,8.021,7.606l.553.553h-.83c-7.191.415-13.552.691-18.116.968-2.213.138-3.872.138-5.255.277H659.7s.691-.138,1.936-.277c1.383-.138,3.042-.277,5.255-.415,4.563-.277,10.786-.691,18.116-1.245l-.277.553c-2.489-2.351-5.255-4.978-8.021-7.606s-5.531-5.117-7.882-7.468l-.553-.553h.83c7.329-.415,13.552-.83,18.116-1.106,2.213-.138,3.872-.138,5.255-.277Z" transform="translate(-659.7 -282.2)" fill="#e0e0e0"/>
      </g>
      <g id="Group_1393" data-name="Group 1393" transform="translate(69.679 157.424)">
        <path id="Path_29032" data-name="Path 29032" d="M728.272,318s-.691.138-1.936.277c-1.383.138-3.042.277-5.255.415-4.563.277-10.925.83-18.116,1.383l.276-.553c2.489,2.351,5.117,4.84,8.021,7.468,2.766,2.628,5.532,5.255,8.021,7.606l.553.553h-.83c-7.191.415-13.552.691-18.116.968-2.212.138-3.872.138-5.255.277H693.7s.691-.138,1.936-.277c1.383-.138,3.042-.277,5.255-.415,4.564-.277,10.787-.691,18.116-1.245l-.277.553c-2.489-2.351-5.255-4.978-8.021-7.606s-5.531-5.117-7.883-7.468l-.553-.553h.83c7.329-.415,13.552-.83,18.116-1.106,2.213-.138,3.872-.138,5.255-.277Z" transform="translate(-693.7 -318)" fill="#e0e0e0"/>
      </g>
      <g id="Group_1394" data-name="Group 1394" transform="translate(175.884 31.444)">
        <path id="Path_29033" data-name="Path 29033" d="M805.072,226.9s-.691.138-1.936.277c-1.383.138-3.042.277-5.255.415-4.563.277-10.925.83-18.116,1.383l.277-.553c2.489,2.351,5.117,4.84,8.021,7.468,2.766,2.627,5.532,5.255,8.021,7.606l.553.553h-.83c-7.191.415-13.552.691-18.116.968-2.213.138-3.872.138-5.255.277H770.5s.691-.138,1.936-.277c1.383-.138,3.042-.277,5.255-.415,4.563-.277,10.786-.691,18.116-1.245l-.277.553c-2.489-2.351-5.255-4.978-8.021-7.606s-5.532-5.117-7.883-7.468l-.553-.553h.83c7.329-.415,13.552-.83,18.116-1.106,2.213-.138,3.872-.138,5.255-.277Z" transform="translate(-770.5 -226.9)" fill="#e0e0e0"/>
      </g>
    </g>
    <g id="Group_1399" data-name="Group 1399" transform="translate(1429.667 -2189.978)">
      <path id="Path_29034" data-name="Path 29034" d="M759.042,320.431s23.232-6.638,30.977-8.712c3.042-.83,15.9,5.946,24.754,11.616,0,0,12.169,7.191,11.2,9.542-1.106,2.489-5.532,1.936-12.723-1.383,0,0,2.489,7.329-2.351,7.191,0,0,2.489,7.882-2.213,8.712-4.563.83-5.67-9.265-9.818-9.819-4.01-.553-12.446-1.106-12.446-1.106s-7.053,11.616-12.446,12.446S756,348.227,756,348.227Z" transform="translate(-756 -311.65)" fill="#ffbe9d"/>
      <g id="Group_1396" data-name="Group 1396" transform="translate(42.488 10.078)">
        <ellipse id="Ellipse_370" data-name="Ellipse 370" cx="0.415" cy="7.468" rx="0.415" ry="7.468" transform="matrix(0.533, -0.846, 0.846, 0.533, 0, 0.702)" fill="#eb996e"/>
      </g>
      <g id="Group_1397" data-name="Group 1397" transform="translate(41.317 14.504)">
        <ellipse id="Ellipse_371" data-name="Ellipse 371" cx="0.415" cy="8.297" rx="0.415" ry="8.297" transform="matrix(0.419, -0.908, 0.908, 0.419, 0, 0.753)" fill="#eb996e"/>
      </g>
      <g id="Group_1398" data-name="Group 1398" transform="translate(43.806 25.373)">
        <ellipse id="Ellipse_372" data-name="Ellipse 372" cx="0.415" cy="5.255" rx="0.415" ry="5.255" transform="translate(0 0.822) rotate(-82.195)" fill="#eb996e"/>
      </g>
    </g>
    <g id="Group_1430" data-name="Group 1430" transform="translate(1383.186 -2488.141)">
      <g id="Group_1424" data-name="Group 1424">
        <path id="Path_29035" data-name="Path 29035" d="M741.627,163.054a5.1,5.1,0,0,1-1.521,5.117,4.841,4.841,0,0,1-5.255.553c-3.181-1.659-3.6-5.946-2.9-9.4.553-3.457,1.8-7.191.276-10.372-1.106-2.489-3.6-4.01-5.393-5.946a15.518,15.518,0,0,1-4.287-13,12.764,12.764,0,0,1,8.85-10.1c4.564-1.245,10.372.138,13.829-3.181,2.489-2.489,2.628-6.361,4.564-9.265,3.042-4.564,9.4-5.255,14.659-4.425,5.393.691,10.786,2.489,16.041,1.106,4.425-1.106,8.021-4.149,12.031-6.085a24.441,24.441,0,0,1,27.1,5.255c6.776,7.053,8.3,18.531,3.872,27.243a15.7,15.7,0,0,1-7.329,7.329" transform="translate(-722.388 -96.04)" fill="#263238"/>
        <g id="Group_1415" data-name="Group 1415" transform="translate(17.717 27.951)">
          <g id="Group_1414" data-name="Group 1414">
            <g id="Group_1413" data-name="Group 1413">
              <g id="Group_1400" data-name="Group 1400">
                <path id="Path_29036" data-name="Path 29036" d="M763.411,269.541h0a26.765,26.765,0,0,0,26.69-26.966l-.415-25.445s21.3-2.074,22.818-23.232c1.383-21.158.415-69.974.415-69.974h0a73.656,73.656,0,0,0-74.4,5.255l-3.319,2.213,1.659,111.875A26.412,26.412,0,0,0,763.411,269.541Z" transform="translate(-735.2 -116.253)" fill="#ffbe9d"/>
              </g>
              <g id="Group_1404" data-name="Group 1404" transform="translate(65.523 35.722)">
                <g id="Group_1401" data-name="Group 1401" transform="translate(3.725 3.755)">
                  <path id="Path_29037" data-name="Path 29037" d="M788.075,151.161c-3.734-.691-3.734-5.532,0-6.361h.553c3.734.691,3.734,5.532,0,6.361Z" transform="translate(-785.275 -144.8)" fill="#263238"/>
                </g>
                <g id="Group_1403" data-name="Group 1403">
                  <g id="Group_1402" data-name="Group 1402">
                    <path id="Path_29038" data-name="Path 29038" d="M793.255,145.425c-.415.415-2.351-1.383-5.255-1.521-2.9-.277-5.117,1.245-5.393.83-.138-.138.277-.83,1.245-1.521a6.592,6.592,0,0,1,4.287-1.106,7.687,7.687,0,0,1,4.149,1.659C793.117,144.6,793.394,145.287,793.255,145.425Z" transform="translate(-782.581 -142.085)" fill="#263238"/>
                  </g>
                </g>
              </g>
              <g id="Group_1408" data-name="Group 1408" transform="translate(33.716 36.552)">
                <g id="Group_1405" data-name="Group 1405" transform="translate(2.706 1.659)">
                  <circle id="Ellipse_373" data-name="Ellipse 373" cx="3.042" cy="3.042" r="3.042" transform="translate(0 5.002) rotate(-55.29)" fill="#263238"/>
                </g>
                <g id="Group_1407" data-name="Group 1407">
                  <g id="Group_1406" data-name="Group 1406">
                    <path id="Path_29039" data-name="Path 29039" d="M770.255,146.025c-.415.415-2.351-1.383-5.255-1.521-2.9-.277-5.117,1.245-5.393.83-.138-.138.277-.83,1.245-1.521a6.592,6.592,0,0,1,4.287-1.106,7.687,7.687,0,0,1,4.149,1.659C770.117,145.2,770.394,145.887,770.255,146.025Z" transform="translate(-759.581 -142.685)" fill="#263238"/>
                  </g>
                </g>
              </g>
              <g id="Group_1410" data-name="Group 1410" transform="translate(54.426 39.199)">
                <g id="Group_1409" data-name="Group 1409">
                  <path id="Path_29040" data-name="Path 29040" d="M774.893,170.046c0-.277,1.8-.553,4.7-.691.83,0,1.383-.138,1.521-.553a5.352,5.352,0,0,0-.415-2.213c-.691-1.936-1.245-4.01-1.936-6.085-2.766-8.574-4.563-15.765-4.149-15.9s3.042,6.776,5.67,15.35c.691,2.074,1.245,4.149,1.8,6.085a4.793,4.793,0,0,1,.276,3.181,1.837,1.837,0,0,1-1.383,1.106,4.764,4.764,0,0,1-1.245.138C776.691,170.46,774.893,170.322,774.893,170.046Z" transform="translate(-774.557 -144.599)" fill="#263238"/>
                </g>
              </g>
              <g id="Group_1411" data-name="Group 1411" transform="translate(44.841 67.412)">
                <path id="Path_29041" data-name="Path 29041" d="M767.867,165a53.516,53.516,0,0,0,14.105,4.978s-3.734,5.255-9.68,2.627C766.069,169.84,767.867,165,767.867,165Z" transform="translate(-767.626 -165)" fill="#fff"/>
              </g>
              <g id="Group_1412" data-name="Group 1412" transform="translate(27.243 91.059)">
                <path id="Path_29042" data-name="Path 29042" d="M782.143,191.5s-13.414.415-27.243-9.4c0,0,5.67,15.627,26.966,14.8Z" transform="translate(-754.9 -182.1)" fill="#eb996e"/>
              </g>
            </g>
          </g>
        </g>
        <path id="Path_29043" data-name="Path 29043" d="M814.438,130.769s-12.722,6.5-29.732-1.521c-11.063-5.255-24.062-7.744-26.828-5.393-2.766,2.213-3.181,13.691-13.967,17.148,0,0,1.106,21.711-7.468,21.02-8.712-.553-3.872-34.3-3.872-34.3l20.882-10.786,22.956-4.84,21.85,2.627,16.871,4.287Z" transform="translate(-719.002 -89.891)" fill="#263238"/>
        <g id="Group_1419" data-name="Group 1419" transform="translate(4.438 64.144)">
          <g id="Group_1416" data-name="Group 1416">
            <path id="Path_29044" data-name="Path 29044" d="M740.259,143.358c-.415-.138-14.382-5.117-14.658,9.4s14.244,11.893,14.382,11.478C739.983,163.825,740.259,143.358,740.259,143.358Z" transform="translate(-725.597 -142.425)" fill="#ffbe9d"/>
          </g>
          <g id="Group_1418" data-name="Group 1418" transform="translate(3.737 4.529)">
            <g id="Group_1417" data-name="Group 1417">
              <path id="Path_29045" data-name="Path 29045" d="M734.523,157.316a7.177,7.177,0,0,0-.691.415,3.015,3.015,0,0,1-1.936,0c-1.521-.553-2.766-3.042-2.766-5.67a7.276,7.276,0,0,1,.83-3.6,2.713,2.713,0,0,1,1.936-1.936,1.392,1.392,0,0,1,1.521.691,2.423,2.423,0,0,1,.138.691,1.211,1.211,0,0,0,.277-.83,1.757,1.757,0,0,0-.553-.968,2.065,2.065,0,0,0-1.383-.415,3.283,3.283,0,0,0-2.627,2.213,9.03,9.03,0,0,0-.968,4.01c0,2.9,1.521,5.67,3.6,6.361a3.091,3.091,0,0,0,2.351-.277C734.523,157.731,734.661,157.316,734.523,157.316Z" transform="translate(-728.3 -145.7)" fill="#eb996e"/>
            </g>
          </g>
        </g>
        <g id="Group_1420" data-name="Group 1420" transform="translate(11.627 19.351)">
          <path id="Path_29046" data-name="Path 29046" d="M730.8,110.4c-.138-.138,2.351-.83,4.978.138,2.766.968,4.149,3.042,3.872,3.181-.138.138-1.659-1.521-4.149-2.489A15.925,15.925,0,0,0,730.8,110.4Z" transform="translate(-730.796 -110.034)" fill="#263238"/>
        </g>
        <g id="Group_1421" data-name="Group 1421" transform="translate(19.857 11.007)">
          <path id="Path_29047" data-name="Path 29047" d="M737.235,104c.276,0-.138,3.042.415,6.638s2.213,6.223,2.074,6.361a10.13,10.13,0,0,1-1.245-1.659,15.992,15.992,0,0,1-1.521-4.564A15.356,15.356,0,0,1,737.235,104Z" transform="translate(-736.747 -104)" fill="#263238"/>
        </g>
        <g id="Group_1422" data-name="Group 1422" transform="translate(79.93 58.164)">
          <path id="Path_29048" data-name="Path 29048" d="M780.2,140.036c-.138-.138.553-.691,1.659-1.106a14.554,14.554,0,0,1,4.84-.83,11.52,11.52,0,0,1,4.84.968c1.106.553,1.8.968,1.659,1.245-.138.415-2.9-.691-6.5-.691C783.247,139.345,780.343,140.451,780.2,140.036Z" transform="translate(-780.187 -138.1)" fill="#263238"/>
        </g>
        <g id="Group_1423" data-name="Group 1423" transform="translate(47.57 55.121)">
          <path id="Path_29049" data-name="Path 29049" d="M756.8,137.836c-.138-.138.553-.691,1.66-1.106a14.553,14.553,0,0,1,4.84-.83,11.521,11.521,0,0,1,4.84.968c1.106.553,1.8.968,1.659,1.245-.138.415-2.9-.691-6.5-.691C759.847,137.145,757.081,138.251,756.8,137.836Z" transform="translate(-756.787 -135.9)" fill="#263238"/>
        </g>
      </g>
      <g id="Group_1429" data-name="Group 1429" transform="translate(17.03 61.206)">
        <g id="Group_1425" data-name="Group 1425" transform="translate(59.963 0.83)">
          <path id="Path_29050" data-name="Path 29050" d="M778.529,141.315v.83a15.986,15.986,0,0,0,.138,2.351,35.068,35.068,0,0,0,.138,3.6,14.9,14.9,0,0,0,.691,4.7,12.333,12.333,0,0,0,3.042,4.84,13.459,13.459,0,0,0,5.67,3.181,10.293,10.293,0,0,0,3.6.277,8.068,8.068,0,0,0,3.6-.83,11.953,11.953,0,0,0,5.946-4.84,12.133,12.133,0,0,0,1.936-7.053v-7.191l.277.277c-7.191,0-13.414-.138-17.977-.138-2.213,0-3.872,0-5.255-.138h-1.383a.683.683,0,0,1-.415.138s.553,0,1.8-.138c1.245,0,3.042,0,5.117-.138,4.563,0,10.786-.138,18.116-.138h.277v7.468a12.278,12.278,0,0,1-2.074,7.468,13.5,13.5,0,0,1-6.361,5.117,17.509,17.509,0,0,1-3.872.83,8.659,8.659,0,0,1-3.734-.415,12.6,12.6,0,0,1-5.946-3.319,14.372,14.372,0,0,1-3.181-5.117,12.414,12.414,0,0,1-.553-4.84,31.282,31.282,0,0,1,.138-3.734,11.932,11.932,0,0,1,.138-2.351C778.529,141.453,778.529,141.177,778.529,141.315Z" transform="translate(-778.064 -140.9)" fill="#263238"/>
        </g>
        <g id="Group_1426" data-name="Group 1426" transform="translate(26.083)">
          <path id="Path_29051" data-name="Path 29051" d="M754.029,140.715v.83a16,16,0,0,0,.138,2.351,35.052,35.052,0,0,0,.138,3.6,14.9,14.9,0,0,0,.691,4.7,12.332,12.332,0,0,0,3.042,4.84,13.46,13.46,0,0,0,5.67,3.181,10.292,10.292,0,0,0,3.6.277,8.067,8.067,0,0,0,3.6-.83,11.953,11.953,0,0,0,5.946-4.84,12.131,12.131,0,0,0,1.936-7.053v-7.191l.277.277c-7.191,0-13.414-.138-17.977-.138-2.213,0-3.872,0-5.255-.138h-1.383c-.277.277-.415.138-.415.138s.553,0,1.8-.138c1.245,0,3.042,0,5.117-.138,4.564,0,10.786-.138,18.116-.138h.277v7.468a12.28,12.28,0,0,1-2.074,7.468,13.5,13.5,0,0,1-6.361,5.117,17.509,17.509,0,0,1-3.872.83,8.659,8.659,0,0,1-3.734-.415,12.6,12.6,0,0,1-5.947-3.319,14.373,14.373,0,0,1-3.181-5.117,12.415,12.415,0,0,1-.553-4.84,31.31,31.31,0,0,1,.138-3.734,11.932,11.932,0,0,1,.138-2.351A2.418,2.418,0,0,0,754.029,140.715Z" transform="translate(-753.564 -140.3)" fill="#263238"/>
        </g>
        <g id="Group_1427" data-name="Group 1427" transform="translate(51.163 1.798)">
          <ellipse id="Ellipse_374" data-name="Ellipse 374" cx="4.84" cy="0.415" rx="4.84" ry="0.415" fill="#263238"/>
        </g>
        <g id="Group_1428" data-name="Group 1428" transform="translate(0 1.895)">
          <ellipse id="Ellipse_375" data-name="Ellipse 375" cx="13.276" cy="0.415" rx="13.276" ry="0.415" transform="translate(0 0.08) rotate(-0.174)" fill="#263238"/>
        </g>
      </g>
    </g>
    <path id="Path_29057" data-name="Path 29057" d="M877.708,258.7,831.935,372.235H749.1v5.117H995.668L1046,258.7Z" transform="translate(671.025 -2521.412)" fill="#263238"/>
    <ellipse id="Ellipse_377" data-name="Ellipse 377" cx="10.786" cy="8.159" rx="10.786" ry="8.159" transform="matrix(0.28, -0.96, 0.96, 0.28, 1600.237, -2189.792)" fill="#c7d3de"/>
  </g>
</svg>
