<svg xmlns="http://www.w3.org/2000/svg" width="152.715" height="173.792" viewBox="0 0 152.715 173.792">
  <g id="Group_1643" data-name="Group 1643" transform="translate(943 181.176)">
    <path id="Path_29781" data-name="Path 29781" d="M4315.97,1957.9c4.417,2.463,3.936,5.748,1.558,9.344h-10.42c1.528-2.747-2.294-2.293-2.407-4.049C4308.127,1960.7,4311.581,1958.3,4315.97,1957.9Z" transform="translate(-5135.225 -1974.628)" fill="#ae8d7b"/>
    <path id="Path_29782" data-name="Path 29782" d="M4048.892,1967.818c-2.152-4.106-.651-6.994,3.086-9.118,3.313,1.586,6.654,3.171,9.967,4.757,1.246,1.557-2.011,2.775-.283,4.361Z" transform="translate(-4951.139 -1975.201)" fill="#ae8d7b"/>
    <path id="Path_29783" data-name="Path 29783" d="M4039.833,1761.131a111.989,111.989,0,0,1-14.7-2.407c-3.312-1.586-6.625-3.171-9.967-4.757-1.7-1.274-3.426-2.577-5.125-3.851-10.731-12.176-13.535-26.843-13.45-42.416,5.521-2.662,5.691-8.013.425-13.025-.057-4.644-.113-9.259-.2-13.9a1.524,1.524,0,0,1,.142-.793c.991-7.022,5.606-6.711,11.015-5.861,14.073,2.209,28.061,4.842,41.425,9.939a12.876,12.876,0,0,0,9.938-.142c14.922-5.8,30.042-10.7,46.352-10.816,3.936-.028,5.606.849,5.748,4.842.2,5.578.765,11.128,1.161,16.706-5.493,5.38-5.38,10.052.255,13.053.2,14.1-2.577,27.409-10.76,39.217l-7.022,6.852c-4.417.368-7.872,2.8-11.3,5.267-4.19.651-8.381,1.161-12.515,2.067C4069.677,1761.442,4041.39,1761.3,4039.833,1761.131Zm-9.74-44.568c-4.219,11.723,2.747,16.621,11.836,22.171,9.315,5.691,16.111,5.238,25.483.028,9.684-5.38,13.2-11.128,13.11-22.312-.085-10.873-3.482-16.508-12.713-22.029-9.684-5.776-16.649-6.031-26.305,0C4032.527,1700.026,4026.383,1705.18,4030.092,1716.562Z" transform="translate(-4914.359 -1770.468)" fill="#9ac4f8"/>
    <path id="Path_29784" data-name="Path 29784" d="M4049.536,1379.015c10,2.605,19.283,6.682,26.843,13.818,3.256,3.058,6.343,4.7,10.732,3.03a12.377,12.377,0,0,1,3.426-.283c4.049-.255,6.569,1.812,7.929,5.38,1.444,3.766.057,6.541-2.917,9.089-2.464,2.124-7.447,2.605-6.965,6.852,1.557,13.7-1.1,27.239-.992,40.887-18.461-.34-35.734,4.615-52.581,11.609a8.325,8.325,0,0,1-6.683.312c-16.876-7.107-34.8-9.514-52.751-11.836-.538-11.128-1.784-22.312-1.3-33.412.283-6.626-.453-11.043-6.541-14.639-5.012-2.945-4.559-9.939.085-13.025,3-2.01,6.427-1.472,9.514-.651a7.776,7.776,0,0,0,8.268-2.209,58.234,58.234,0,0,1,26.475-14.526C4013.066,1379.128,4027.291,1374.675,4049.536,1379.015Zm-11.241,65.068c-4.446-3.851-8.919-4.389-13.45-.141-3.709.708-6.8,2.35-6.909,6.541-.113,4.3,3.483,5.012,6.683,5.861-.793,5.436,1.9,7.56,7.022,7.56,4.786,0,6.258-2.662,5.833-6.966,1.1-.368,2.208-.68,3.285-1.133,5.182-2.152,5.833-5.266,1.926-9.174A7.56,7.56,0,0,0,4038.295,1444.083Zm-37.263-38.027c-4.021.311-8.07.425-12.091.934-9.91,1.274-12.543,5.125-10.448,14.922,2.775,13.025,12.43,23.134,22.85,23.756a44.527,44.527,0,0,0,27.522-7.022c2.8-1.84,4.417-2.01,7.249.283,12.232,9.854,29.334,9,38.593-1.557a35.565,35.565,0,0,0,8.693-19.2c.623-4.814-.6-9.656-5.833-10.448-15.148-2.294-30.41-3.992-43.35,7.305-1.246,1.076-2.209,2.152-3.794.453C4022.354,1407.019,4011.876,1406.084,4001.032,1406.056Zm-23.983-3.172c.255-1.9-.736-2.548-2.293-2.435a3.147,3.147,0,0,0-3.2,3.285c-.057,1.642.765,3.256,2.463,3.256C3976.6,1407.019,3975.945,1404.159,3977.049,1402.884Zm111.279-2.463c-1.812.17-2.662,1.1-2.011,2.662.595,1.444.481,3.879,2.577,3.936,1.9.057,2.944-1.727,2.8-3.568A3.258,3.258,0,0,0,4088.328,1400.421Z" transform="translate(-4891.104 -1558.3)" fill="#9ac4f8"/>
    <path id="Path_29785" data-name="Path 29785" d="M4111.835,1661.958c4.983,6.6,6.541,14.582,8.438,22.312,4.927,20.132,5.012,40.717,4.672,61.3-.057,3.908-1.444,4.389-4.389,2.039-5.182-4.162-11.241-6.512-17.414-8.693,8.184-11.808,10.958-25.087,10.761-39.217,4.785-3.908,4.7-8.1-.255-13.053-.4-5.578-.963-11.128-1.161-16.706-.142-4.021-1.812-4.87-5.748-4.842-16.31.113-31.43,5.04-46.352,10.816a12.876,12.876,0,0,1-9.938.142c-13.365-5.1-27.325-7.73-41.425-9.939-5.437-.849-10.024-1.161-11.015,5.861.481-3.341-1.189-7.079,1.84-9.967,17.952,2.322,35.875,4.729,52.751,11.836a8.319,8.319,0,0,0,6.682-.312C4076.1,1666.574,4093.373,1661.619,4111.835,1661.958Z" transform="translate(-4915.347 -1762.471)" fill="#c11c7e"/>
    <path id="Path_29786" data-name="Path 29786" d="M3946.19,1769.544c-13.988-.368-26.39-4.615-36.583-14.611-2.152-2.124-3.086-3.794-.821-6.229,12.827-13.789,19.453-30.665,24.182-48.5.057,4.644.113,9.259.2,13.9-4.9,4.587-5.068,9.2-.424,13.025C3932.655,1742.7,3935.458,1757.368,3946.19,1769.544Z" transform="translate(-4850.476 -1789.896)" fill="#c4187c"/>
    <path id="Path_29787" data-name="Path 29787" d="M4111.7,1759.4c-3.709-11.383,2.435-16.536,11.411-22.114,9.655-6.031,16.621-5.776,26.3,0,9.231,5.522,12.657,11.156,12.714,22.029.084,11.185-3.455,16.933-13.11,22.312-9.372,5.21-16.168,5.692-25.484-.028C4114.45,1776.024,4107.484,1771.126,4111.7,1759.4Zm46.352.283c3.228-10-1.7-15.8-10.59-19.509a47.226,47.226,0,0,1-7.532-4.276c-2.548-1.7-4.814-1.9-7.39.028a26.387,26.387,0,0,1-6.06,3.341c-10.081,3.794-12.969,10.76-12.4,21.463.453,8.438,2.69,13.11,10.194,17.612,8.834,5.323,15.4,5.21,24.068-.028C4155.96,1773.731,4161.029,1769.285,4158.056,1759.686Z" transform="translate(-4995.971 -1813.308)" fill="#c72585"/>
    <path id="Path_29788" data-name="Path 29788" d="M4396.155,1749.2c4.983,4.955,5.069,9.146.255,13.053C4390.775,1759.252,4390.662,1754.58,4396.155,1749.2Z" transform="translate(-5197.883 -1825.021)" fill="#b49381"/>
    <path id="Path_29789" data-name="Path 29789" d="M3988.17,1762.225c-4.644-3.823-4.474-8.438.424-13.025C3993.861,1754.212,3993.691,1759.563,3988.17,1762.225Z" transform="translate(-4905.905 -1825.021)" fill="#b49381"/>
    <path id="Path_29790" data-name="Path 29790" d="M4035.64,1479.284c10.845.028,21.293.963,29.391,9.429,1.586,1.671,2.548.623,3.794-.453,12.94-11.3,28.231-9.6,43.351-7.305,5.267.793,6.456,5.635,5.833,10.448a35.356,35.356,0,0,1-8.692,19.2c-9.259,10.562-26.39,11.411-38.594,1.557-2.832-2.294-4.445-2.1-7.249-.283a44.715,44.715,0,0,1-27.522,7.022c-10.42-.595-20.076-10.731-22.851-23.756-2.1-9.8.538-13.648,10.448-14.922C4027.571,1479.709,4031.62,1479.567,4035.64,1479.284Zm5.606,9.8c-4.163.736-8.692.085-12.883,1.812-4.672,1.925-5.946,5.125-3.851,9.655,5.012,10.817,22.567,14.271,31.289,6.145,5.493-5.125,4.332-12.261-2.548-15.432C4049.515,1489.534,4045.438,1489.563,4041.247,1489.081Zm51.7.51c-8.211,0-11.185.51-14.554,2.464-5.8,3.313-6.654,9.2-2.067,13.959,8.551,8.834,26.192,5.578,30.892-5.691,2.1-4.984.651-8.155-4.474-9.854C4099.378,1489.364,4095.9,1489.7,4092.95,1489.591Z" transform="translate(-4925.712 -1631.528)" fill="#c71d81"/>
    <path id="Path_29791" data-name="Path 29791" d="M4160.876,1625.5c-3.229-.85-6.8-1.557-6.683-5.861.112-4.191,3.2-5.833,6.908-6.541-.849,5.8,3.172,6.2,7.107,6,3.426-.2,7.9.057,6.343-5.861a7.886,7.886,0,0,1,4.445,2.549c3.907,3.907,3.257,7.022-1.925,9.174-1.076.453-2.181.764-3.285,1.133C4169.512,1624.228,4165.208,1624.681,4160.876,1625.5Z" transform="translate(-5027.333 -1727.458)" fill="#b49381"/>
    <path id="Path_29792" data-name="Path 29792" d="M4191.658,1605.719c1.558,5.89-2.888,5.663-6.343,5.861-3.964.227-7.957-.2-7.107-6C4182.738,1601.33,4187.212,1601.868,4191.658,1605.719Z" transform="translate(-5044.467 -1719.936)" fill="#090a0a"/>
    <path id="Path_29793" data-name="Path 29793" d="M4177.453,1655.1c4.333-.821,8.665-1.274,12.855.595.424,4.3-1.048,6.937-5.833,6.966C4179.351,1662.657,4176.661,1660.534,4177.453,1655.1Z" transform="translate(-5043.91 -1757.053)" fill="#dcd5d6"/>
    <path id="Path_29794" data-name="Path 29794" d="M3995.786,1461.9c-1.1,1.274-.453,4.106-3.03,4.106-1.7,0-2.52-1.614-2.463-3.256a3.148,3.148,0,0,1,3.2-3.285C3995.021,1459.356,3996.042,1460.036,3995.786,1461.9Z" transform="translate(-4909.841 -1617.32)" fill="#0f89c3"/>
    <path id="Path_29795" data-name="Path 29795" d="M4397.033,1459.4a3.214,3.214,0,0,1,3.342,3.03c.141,1.841-.907,3.624-2.8,3.568-2.067-.057-1.954-2.492-2.577-3.936C4394.372,1460.5,4395.25,1459.542,4397.033,1459.4Z" transform="translate(-5199.809 -1617.279)" fill="#0f89c3"/>
    <path id="Path_29796" data-name="Path 29796" d="M4167.1,1764.005c2.973,9.627-2.1,14.044-9.712,18.632-8.665,5.238-15.234,5.352-24.068.028-7.5-4.531-9.741-9.174-10.193-17.612-.566-10.7,2.322-17.669,12.4-21.463a25.8,25.8,0,0,0,6.059-3.341c2.577-1.9,4.842-1.727,7.391-.028a44,44,0,0,0,7.532,4.276C4165.432,1748.205,4170.331,1753.982,4167.1,1764.005Zm-34.432-.283v11.553c0,2.152-.283,4.332,3.03,4.36,3.2.028,3.256-1.954,3.171-4.219a28.072,28.072,0,0,0-.028-3.454c-.651-4.474.991-5.975,5.663-5.89,4.332.085,6.541.934,5.776,5.691a41.744,41.744,0,0,0-.057,4.615c-.114,2.124.595,3.313,2.917,3.228,2.039-.057,3.907-.085,3.907-2.945-.057-8.664-.028-17.357-.028-26.022,0-2.407-1.416-2.8-3.4-2.8-1.954,0-3.455.255-3.37,2.747.085,2.322-.169,4.644.029,6.937.255,3.143-1.161,3.851-4.049,3.907-7.306.17-7.306.312-7.334-7.079,0-1.161-.057-2.322,0-3.483.085-2.18-.934-3.058-3.143-3.058-2.265,0-3.086,1.019-3.058,3.143C4132.728,1755.228,4132.7,1759.475,4132.671,1763.722Z" transform="translate(-5005.017 -1817.628)" fill="#fe4389"/>
    <path id="Path_29797" data-name="Path 29797" d="M4069.348,1513.9c4.163.481,8.24.453,12.006,2.18,6.88,3.171,8.042,10.307,2.548,15.432-8.721,8.126-26.277,4.7-31.289-6.145-2.1-4.559-.85-7.73,3.851-9.656C4060.684,1513.985,4065.186,1514.636,4069.348,1513.9Zm7.645,10.618a7.97,7.97,0,0,0-8.07-7.362,7.67,7.67,0,0,0-7.05,8.211c.4,4.587,3.228,6.824,7.588,6.994C4073.567,1532.5,4077.163,1528.567,4076.993,1524.518Z" transform="translate(-4953.813 -1656.347)" fill="#dcd5d6"/>
    <path id="Path_29798" data-name="Path 29798" d="M4247.3,1515.7c2.945.113,6.428-.226,9.8.878,5.125,1.7,6.569,4.87,4.474,9.854-4.729,11.27-22.369,14.5-30.892,5.691-4.587-4.757-3.709-10.646,2.067-13.959C4236.144,1516.21,4239.117,1515.7,4247.3,1515.7Zm-1.925,2.69a7.805,7.805,0,0,0-7.475,7.815,7.6,7.6,0,1,0,15.205-.227A7.844,7.844,0,0,0,4245.375,1518.39Z" transform="translate(-5080.062 -1657.638)" fill="#dcd5d6"/>
    <path id="Path_29799" data-name="Path 29799" d="M4156.913,1786.457c0-4.247.029-8.466,0-12.714-.028-2.124.793-3.143,3.058-3.143,2.18,0,3.2.878,3.143,3.058-.028,1.161,0,2.322,0,3.483.028,7.39.028,7.249,7.334,7.079,2.888-.057,4.3-.793,4.049-3.908-.2-2.293.057-4.615-.029-6.937-.084-2.492,1.444-2.747,3.37-2.747,1.982,0,3.4.4,3.4,2.8-.029,8.664-.029,17.357.028,26.022.028,2.86-1.869,2.888-3.907,2.945-2.293.057-3.03-1.1-2.917-3.228a41.625,41.625,0,0,1,.057-4.615c.792-4.757-1.444-5.606-5.776-5.691-4.672-.085-6.314,1.416-5.663,5.889a28.122,28.122,0,0,1,.028,3.455c.057,2.265.029,4.247-3.171,4.219-3.313-.029-3.029-2.209-3.029-4.361C4156.913,1794.158,4156.913,1790.307,4156.913,1786.457Z" transform="translate(-5029.26 -1840.362)" fill="#fef6f9"/>
    <path id="Path_29800" data-name="Path 29800" d="M4102.85,1532.664c.17,4.049-3.427,7.985-7.532,7.815-4.36-.17-7.192-2.407-7.588-6.994a7.67,7.67,0,0,1,7.05-8.211A8.016,8.016,0,0,1,4102.85,1532.664Z" transform="translate(-4979.67 -1664.493)" fill="#1e1e1e"/>
    <path id="Path_29801" data-name="Path 29801" d="M4271.075,1525.2a7.844,7.844,0,0,1,7.73,7.588,7.6,7.6,0,1,1-15.206.227A7.805,7.805,0,0,1,4271.075,1525.2Z" transform="translate(-5105.762 -1664.447)" fill="#1e1e1e"/>
  </g>
</svg>
