<svg xmlns="http://www.w3.org/2000/svg" xmlns:xlink="http://www.w3.org/1999/xlink" width="196.82" height="31.353" viewBox="0 0 196.82 31.353">
  <defs>
    <linearGradient id="linear-gradient" y1="0.324" x2="1" y2="0.336" gradientUnits="objectBoundingBox">
      <stop offset="0" stop-color="#ff3158"/>
      <stop offset="1" stop-color="#ff1249"/>
    </linearGradient>
    <linearGradient id="linear-gradient-2" y1="0.29" x2="1" y2="0.303" gradientUnits="objectBoundingBox">
      <stop offset="0" stop-color="#ff4e70"/>
      <stop offset="1" stop-color="#ff3158"/>
    </linearGradient>
  </defs>
  <g id="Group_1709" data-name="Group 1709" transform="translate(278.14 3063.742)">
    <path id="add" d="M3.6,1.622H2.4a.071.071,0,0,1-.071-.071V.353a.353.353,0,1,0-.705,0v1.2a.071.071,0,0,1-.071.071H.353a.353.353,0,0,0,0,.705h1.2a.071.071,0,0,1,.071.071V3.6a.353.353,0,1,0,.705,0V2.4A.071.071,0,0,1,2.4,2.327H3.6a.353.353,0,0,0,0-.705Zm0,0" transform="matrix(0.875, 0.485, -0.485, 0.875, -111.961, -3060.853)" fill="#222"/>
    <path id="minus" d="M2.9,0H.386a.391.391,0,0,0,0,.782H2.9A.391.391,0,0,0,2.9,0Z" transform="matrix(0.899, -0.438, 0.438, 0.899, -115.874, -3062.302)" fill="#222"/>
    <g id="Ellipse_359" data-name="Ellipse 359" transform="translate(-119.07 -3059.017)" fill="none" stroke="#222" stroke-width="0.8">
      <circle cx="1.408" cy="1.408" r="1.408" stroke="none"/>
      <circle cx="1.408" cy="1.408" r="1.008" fill="none"/>
    </g>
    <path id="Path_29943" data-name="Path 29943" d="M16.5-10.17a4.479,4.479,0,0,1,3.18,4.62,5.184,5.184,0,0,1-1.6,4.2Q16.47,0,13.05,0H3.78A1.906,1.906,0,0,1,2.37-.51a1.906,1.906,0,0,1-.51-1.41V-18.18a1.908,1.908,0,0,1,.509-1.41,1.9,1.9,0,0,1,1.408-.51h8.685a7.768,7.768,0,0,1,5,1.335A5.08,5.08,0,0,1,19.08-14.61a4.437,4.437,0,0,1-2.58,4.38ZM12.33-11.7q3.18,0,3.18-2.55,0-2.58-3.18-2.58H5.43v5.13Zm.51,8.43q3.18,0,3.18-2.64,0-2.58-3.18-2.58H5.43v5.22Z" transform="translate(-101 -3033)" fill="#222"/>
    <path id="Path_29942" data-name="Path 29942" d="M18.39-20.28a1.677,1.677,0,0,1,1.305.51,1.97,1.97,0,0,1,.465,1.38V-2.01a2.249,2.249,0,0,1-.555,1.59,1.962,1.962,0,0,1-1.515.6A2.558,2.558,0,0,1,16.02-.87L5.43-14.4H5.37V-1.71A1.97,1.97,0,0,1,4.905-.33,1.677,1.677,0,0,1,3.6.18,1.639,1.639,0,0,1,2.325-.33,1.97,1.97,0,0,1,1.86-1.71V-18.09a2.249,2.249,0,0,1,.555-1.59,1.962,1.962,0,0,1,1.515-.6,2.5,2.5,0,0,1,2.04,1.02L16.59-5.64h.06V-18.39a1.97,1.97,0,0,1,.465-1.38A1.639,1.639,0,0,1,18.39-20.28ZM23.46-7.17a8.263,8.263,0,0,1,.554-3.075,6.757,6.757,0,0,1,1.572-2.385,7.217,7.217,0,0,1,2.44-1.545,8.537,8.537,0,0,1,3.129-.555,8.537,8.537,0,0,1,3.129.555,7.055,7.055,0,0,1,2.425,1.545,7.039,7.039,0,0,1,1.572,2.385A8.07,8.07,0,0,1,38.85-7.17a7.957,7.957,0,0,1-.569,3.06,7.073,7.073,0,0,1-1.572,2.37A7.055,7.055,0,0,1,34.284-.2,8.537,8.537,0,0,1,31.155.36,8.537,8.537,0,0,1,28.026-.2a7.217,7.217,0,0,1-2.44-1.545,6.786,6.786,0,0,1-1.572-2.37A8.147,8.147,0,0,1,23.46-7.17Zm3.33,0a4.485,4.485,0,0,0,1.2,3.255A4.2,4.2,0,0,0,31.155-2.67a4.186,4.186,0,0,0,3.176-1.245A4.518,4.518,0,0,0,35.52-7.17a4.559,4.559,0,0,0-1.189-3.285A4.186,4.186,0,0,0,31.155-11.7a4.2,4.2,0,0,0-3.161,1.245A4.525,4.525,0,0,0,26.79-7.17Zm23.13-7.47a1.662,1.662,0,0,1,1.2.431,1.588,1.588,0,0,1,.45,1.2,1.588,1.588,0,0,1-.45,1.2,1.662,1.662,0,0,1-1.2.431,4.536,4.536,0,0,0-3.36,1.2,5.282,5.282,0,0,0-1.2,3.85v4.722a1.834,1.834,0,0,1-.439,1.309A1.6,1.6,0,0,1,43.695.18a1.6,1.6,0,0,1-1.226-.465A1.827,1.827,0,0,1,42.03-1.59V-12.78a1.838,1.838,0,0,1,.439-1.29,1.578,1.578,0,0,1,1.226-.48,1.586,1.586,0,0,1,1.226.475A1.809,1.809,0,0,1,45.36-12.8v.535h.06A4.8,4.8,0,0,1,49.92-14.64ZM64.14-3.03a1.923,1.923,0,0,1-.21.87A4.136,4.136,0,0,1,62.055-.27,6.544,6.544,0,0,1,59.07.36a5.39,5.39,0,0,1-4.082-1.53A5.9,5.9,0,0,1,53.52-5.43V-17.55a1.827,1.827,0,0,1,.439-1.305,1.6,1.6,0,0,1,1.226-.465,1.6,1.6,0,0,1,1.226.465,1.827,1.827,0,0,1,.439,1.305v3.18h4.98a1.715,1.715,0,0,1,1.215.4,1.462,1.462,0,0,1,.435,1.125,1.424,1.424,0,0,1-.435,1.1,1.715,1.715,0,0,1-1.215.405H56.85v6a2.836,2.836,0,0,0,.63,1.98,2.238,2.238,0,0,0,1.74.69,2.455,2.455,0,0,0,1.26-.315,2.457,2.457,0,0,0,.87-.855,1.645,1.645,0,0,1,.525-.525,1.368,1.368,0,0,1,.735-.2,1.579,1.579,0,0,1,1.1.39A1.452,1.452,0,0,1,64.14-3.03Zm10.5-11.7a5.814,5.814,0,0,1,4.545,1.71A7.193,7.193,0,0,1,80.73-8.04v6.45a1.827,1.827,0,0,1-.439,1.305A1.6,1.6,0,0,1,79.065.18a1.6,1.6,0,0,1-1.226-.465A1.827,1.827,0,0,1,77.4-1.59V-7.68a4.37,4.37,0,0,0-.911-3,3.439,3.439,0,0,0-2.7-1.02,3.643,3.643,0,0,0-2.9,1.2A4.807,4.807,0,0,0,69.84-7.23v5.64A1.827,1.827,0,0,1,69.4-.285,1.6,1.6,0,0,1,68.175.18a1.6,1.6,0,0,1-1.226-.465A1.827,1.827,0,0,1,66.51-1.59V-19.41a1.827,1.827,0,0,1,.439-1.305,1.6,1.6,0,0,1,1.226-.465,1.6,1.6,0,0,1,1.226.465,1.827,1.827,0,0,1,.439,1.305v6.72h.06a5.344,5.344,0,0,1,1.965-1.5A6.637,6.637,0,0,1,74.64-14.73Zm16.62,2.94a4.485,4.485,0,0,0-2.745.855,3.824,3.824,0,0,0-1.485,2.3H95.4a3.9,3.9,0,0,0-1.44-2.3A4.293,4.293,0,0,0,91.26-11.79Zm6.06,9.66A6.476,6.476,0,0,1,94.815-.285a8.613,8.613,0,0,1-3.4.645A8.984,8.984,0,0,1,88.185-.2,7.335,7.335,0,0,1,85.7-1.74a6.689,6.689,0,0,1-1.59-2.37,8.132,8.132,0,0,1-.555-3.06,8.248,8.248,0,0,1,.555-3.075A6.758,6.758,0,0,1,85.68-12.63a7.231,7.231,0,0,1,2.445-1.545,8.569,8.569,0,0,1,3.135-.555,7.959,7.959,0,0,1,2.91.525,7.455,7.455,0,0,1,2.34,1.425,6.454,6.454,0,0,1,1.545,2.115A6.172,6.172,0,0,1,98.61-8.07v.15a1.857,1.857,0,0,1-.54,1.395A1.937,1.937,0,0,1,96.66-6H87.03A4,4,0,0,0,88.5-3.5a4.58,4.58,0,0,0,2.91.915A4.743,4.743,0,0,0,93.465-3,4.231,4.231,0,0,0,94.89-4.05a1.561,1.561,0,0,1,1.23-.6,1.54,1.54,0,0,1,1.14.42,1.5,1.5,0,0,1,.42,1.11A1.549,1.549,0,0,1,97.32-2.13Zm12.27-12.6a5.814,5.814,0,0,1,4.545,1.71,7.193,7.193,0,0,1,1.545,4.98v6.45a1.827,1.827,0,0,1-.439,1.305,1.6,1.6,0,0,1-1.226.465,1.6,1.6,0,0,1-1.226-.465,1.827,1.827,0,0,1-.439-1.305V-7.68a4.37,4.37,0,0,0-.911-3,3.439,3.439,0,0,0-2.7-1.02,3.643,3.643,0,0,0-2.9,1.2,4.807,4.807,0,0,0-1.046,3.27v5.64a1.827,1.827,0,0,1-.439,1.305,1.6,1.6,0,0,1-1.226.465A1.6,1.6,0,0,1,101.9-.285a1.827,1.827,0,0,1-.439-1.305V-12.78a1.827,1.827,0,0,1,.439-1.305,1.6,1.6,0,0,1,1.226-.465,1.6,1.6,0,0,1,1.226.465,1.827,1.827,0,0,1,.439,1.305v.09h.06a5.344,5.344,0,0,1,1.965-1.5A6.637,6.637,0,0,1,109.59-14.73Zm22.6-6.45a1.627,1.627,0,0,1,1.241.48,1.8,1.8,0,0,1,.454,1.29V-1.59a1.79,1.79,0,0,1-.454,1.305,1.655,1.655,0,0,1-1.241.465A1.565,1.565,0,0,1,131-.285a1.826,1.826,0,0,1-.439-1.305v-.15h-.06a5.461,5.461,0,0,1-2.1,1.56,7.251,7.251,0,0,1-2.88.54,7.391,7.391,0,0,1-2.88-.54,6.4,6.4,0,0,1-2.22-1.53A6.733,6.733,0,0,1,119-4.08a9.105,9.105,0,0,1-.5-3.09,9.235,9.235,0,0,1,.5-3.105,6.71,6.71,0,0,1,1.425-2.385,6.4,6.4,0,0,1,2.22-1.53,7.391,7.391,0,0,1,2.88-.54,7.251,7.251,0,0,1,2.88.54,5.461,5.461,0,0,1,2.1,1.56h.083l-.023-6.78A1.838,1.838,0,0,1,131-20.7,1.54,1.54,0,0,1,132.195-21.18Zm-6.03,18.51A4.678,4.678,0,0,0,127.941-3a4.078,4.078,0,0,0,1.4-.93,4.119,4.119,0,0,0,.9-1.425,5.033,5.033,0,0,0,.316-1.815A5.155,5.155,0,0,0,130.244-9a4.092,4.092,0,0,0-.9-1.44,4.078,4.078,0,0,0-1.4-.93,4.678,4.678,0,0,0-1.776-.33,4.161,4.161,0,0,0-3.131,1.245,4.525,4.525,0,0,0-1.2,3.285,4.485,4.485,0,0,0,1.2,3.255A4.161,4.161,0,0,0,126.165-2.67Zm26.295-.6a1.89,1.89,0,0,1,1.29.42,1.509,1.509,0,0,1,.48,1.2,1.556,1.556,0,0,1-.48,1.215A1.848,1.848,0,0,1,152.46,0H139.65a1.906,1.906,0,0,1-1.41-.51,1.906,1.906,0,0,1-.51-1.41V-18.36a2.015,2.015,0,0,1,.465-1.41,1.715,1.715,0,0,1,1.335-.51,1.677,1.677,0,0,1,1.3.51,2.015,2.015,0,0,1,.465,1.41V-3.27Z" transform="translate(-280 -3033)" fill="#222"/>
    <path id="Path_28989" data-name="Path 28989" d="M2027.966,2407.858a5.4,5.4,0,0,1,5.563.62c3.925,1.087,4.705.56,4.705.56s1.923,10.548-5.248,11.13S2027.966,2407.858,2027.966,2407.858Z" transform="translate(-2146.378 -5453.15)" fill="url(#linear-gradient)"/>
    <path id="Path_28990" data-name="Path 28990" d="M2037.5,2407.811a3.954,3.954,0,0,0-5.536-.409,4.021,4.021,0,0,1-4.7.409s-4.756,7.383-4.332,10.574c.9,2.325,6.238.685,9.273.927,3.305.264,8.276,1.75,9.547-.927C2041.5,2415.248,2037.555,2407.878,2037.5,2407.811Z" transform="translate(-2145.912 -5452.35)" fill="url(#linear-gradient-2)"/>
    <path id="Path_28991" data-name="Path 28991" d="M22.312,19.713,15.752,5.255a2,2,0,0,1-.135-.661V3.262a.6.6,0,0,1,.318-.475A1.486,1.486,0,0,0,15.211,0h-5.5a1.488,1.488,0,0,0-.846,2.714.691.691,0,0,1,.3.505V4.758a1.838,1.838,0,0,1-.145.656L2.369,19.72a1.645,1.645,0,0,0,.024,1.6,1.646,1.646,0,0,0,1.439.7h16.96a1.564,1.564,0,0,0,1.52-2.3Zm-.948.656s.364.554-.217.581c0,.053-13.11.052-17.587,0-.554,0-.29-.534-.29-.534,0-.016,3.7-8.143,3.78-8.315l3-6.459a1.825,1.825,0,0,0,.124-.656V2.342c0-.217-.105-.393-.234-.393H9.708a.459.459,0,0,1,0-.917h5.5a.459.459,0,0,1,0,.917H14.9a.358.358,0,0,0-.307.393V4.806a2,2,0,0,0,.124.661l2.828,6.63C17.623,12.271,21.411,20.385,21.364,20.369Z" transform="translate(-125.973 -3054.447)" fill="#030104"/>
    <g id="Group_1040" data-name="Group 1040" transform="translate(-118.367 -3043.792)">
      <path id="Path_28966" data-name="Path 28966" d="M120.962,6.575,117.087.233a.486.486,0,0,0-.829,0l-3.875,6.342a.486.486,0,0,0,.742.612,5.311,5.311,0,0,1,7.1,0,.485.485,0,0,0,.742-.611Z" transform="translate(-112.311)" fill="#222"/>
    </g>
  </g>
</svg>
