<svg xmlns="http://www.w3.org/2000/svg" width="1600.136" height="456.287" viewBox="0 0 1600.136 456.287">
  <g id="Group_1647" data-name="Group 1647" transform="translate(1905.136 -962)">
    <rect id="Rectangle_582" data-name="Rectangle 582" width="1600" height="456" transform="translate(-1905 962)" fill="#f8f8f8"/>
    <path id="Path_29803" data-name="Path 29803" d="M283.427,815.4a143.6,143.6,0,0,0,24.9-22.014c70.712-79.335,129.35-74.161,187.989-31.044s213.859,20.7,181.09-155.22S792.962,496.742,832.63,436.379c18.971-28.974,21.731-55.19,16.9-77.265H283.069S283.219,815.2,283.427,815.4Z" transform="translate(-2188.205 602.887)" fill="#f2f2f2"/>
    <path id="Path_29802" data-name="Path 29802" d="M909.347,361.977c-42.468-5.167-138.882-9.689-198.949,46.828-78.432,74.279-143.473,69.435-208.514,29.066S264.675,418.493,301.021,583.2,172.852,686.543,128.854,743.059c-21.043,27.128-24.1,51.672-18.747,72.341H909.347Z" transform="translate(-1214.843 602.886)" fill="#f2f2f2"/>
  </g>
</svg>
